<?xml version="1.0" encoding="UTF-8"?>
<svg xmlns="http://www.w3.org/2000/svg" xmlns:xlink="http://www.w3.org/1999/xlink" width="18px" height="18px" viewBox="0 0 18 18" version="1.1">
<g id="surface1">
<path style=" stroke:none;fill-rule:nonzero;fill:rgb(100%,100%,100%);fill-opacity:1;" d="M 0.605469 15.867188 L 15.867188 0.605469 C 16.203125 0.273438 16.746094 0.273438 17.078125 0.605469 L 17.394531 0.921875 C 17.726562 1.253906 17.726562 1.796875 17.394531 2.132812 L 2.132812 17.394531 C 1.796875 17.726562 1.253906 17.726562 0.921875 17.394531 L 0.605469 17.078125 C 0.273438 16.746094 0.273438 16.203125 0.605469 15.867188 Z M 0.605469 15.867188 "/>
<path style=" stroke:none;fill-rule:nonzero;fill:rgb(100%,100%,100%);fill-opacity:1;" d="M 2.132812 0.605469 L 17.394531 15.867188 C 17.726562 16.203125 17.726562 16.746094 17.394531 17.078125 L 17.078125 17.394531 C 16.746094 17.726562 16.203125 17.726562 15.867188 17.394531 L 0.605469 2.132812 C 0.273438 1.796875 0.273438 1.253906 0.605469 0.921875 L 0.921875 0.605469 C 1.253906 0.273438 1.796875 0.273438 2.132812 0.605469 Z M 2.132812 0.605469 "/>
</g>
</svg>
